<svg xmlns="http://www.w3.org/2000/svg" viewBox="0 0 100 100">
  <rect width="100" height="100" rx="22" fill="#06080A"/>
  <g transform="translate(8,8) scale(0.84)" fill="#BFEFD9" stroke="#1CF09A" stroke-width="1.1" stroke-linejoin="round">
    <polygon points="12,28 50,6 50,40"  fill-opacity=".55"/>
    <polygon points="50,6 88,28 50,40"  fill-opacity=".82"/>
    <polygon points="88,28 68,58 50,40" fill-opacity=".46"/>
    <polygon points="88,28 88,72 68,58" fill-opacity=".70"/>
    <polygon points="88,72 50,94 68,58" fill-opacity=".50"/>
    <polygon points="50,94 68,58 32,58" fill-opacity=".88"/>
    <polygon points="50,94 32,58 12,72" fill-opacity=".60"/>
    <polygon points="12,72 32,58 12,28" fill-opacity=".40"/>
    <polygon points="12,28 32,58 50,40" fill-opacity=".70"/>
    <polygon points="50,40 32,58 68,58" fill-opacity="1"/>
  </g>
</svg>
